<svg width="565" height="397" viewBox="0 0 565 397" fill="none" xmlns="http://www.w3.org/2000/svg">
<path d="M0 85.3643C0 85.3643 79 49.5843 129.22 74.6243C144.32 81.3043 143.84 104.624 143.13 136.304C141.61 204.244 124.8 306.104 148.72 330.084C175.46 353.204 277.87 321.534 353.11 288.844C383.108 275.723 411.961 260.125 439.37 242.214C504.65 201.654 571.83 125.604 563.9 48.8843C555.97 -27.8357 434.36 5.79431 389.09 17.2743C359.72 23.0043 227.91 57.6743 206.87 55.1943C185.83 52.7143 181.67 48.8943 174.87 40.3743C174.87 40.3743 147.32 -1.45569 61.96 36.7943C16.06 59.9243 0 85.3643 0 85.3643Z" fill="#25292E"/>
<path d="M367.08 346.914C380.611 346.914 391.58 335.945 391.58 322.414C391.58 308.883 380.611 297.914 367.08 297.914C353.549 297.914 342.58 308.883 342.58 322.414C342.58 335.945 353.549 346.914 367.08 346.914Z" fill="#25292E"/>
<path d="M197.47 396.504C211.001 396.504 221.97 385.535 221.97 372.004C221.97 358.473 211.001 347.504 197.47 347.504C183.939 347.504 172.97 358.473 172.97 372.004C172.97 385.535 183.939 396.504 197.47 396.504Z" fill="#25292E"/>
</svg>
